<mxfile host="Electron" modified="2024-03-12T07:11:45.169Z" agent="Mozilla/5.0 (X11; Linux x86_64) AppleWebKit/537.36 (KHTML, like Gecko) draw.io/24.0.4 Chrome/120.0.6099.109 Electron/28.1.0 Safari/537.36" etag="rUBnyZA_L3Jd6uX502FD" version="24.0.4" type="device">
  <diagram name="Page-1" id="ijKU6omm411AxzlGt9A5">
    <mxGraphModel dx="691" dy="386" grid="1" gridSize="10" guides="1" tooltips="1" connect="1" arrows="1" fold="1" page="1" pageScale="1" pageWidth="850" pageHeight="1100" background="none" math="0" shadow="0">
      <root>
        <mxCell id="0" />
        <mxCell id="1" parent="0" />
        <mxCell id="vYJTW-IyGAqJvvr4b3gr-3" value="" style="rounded=0;whiteSpace=wrap;html=1;movable=1;resizable=1;rotatable=1;deletable=1;editable=1;locked=0;connectable=1;" parent="1" vertex="1">
          <mxGeometry x="210" y="40" width="190" height="200" as="geometry" />
        </mxCell>
        <mxCell id="vYJTW-IyGAqJvvr4b3gr-58" value="" style="endArrow=classic;html=1;rounded=0;exitX=1;exitY=0.5;exitDx=0;exitDy=0;edgeStyle=elbowEdgeStyle;entryX=0.996;entryY=0.151;entryDx=0;entryDy=0;entryPerimeter=0;strokeWidth=2;" parent="1" source="vYJTW-IyGAqJvvr4b3gr-55" target="vYJTW-IyGAqJvvr4b3gr-3" edge="1">
          <mxGeometry width="50" height="50" relative="1" as="geometry">
            <mxPoint x="248" y="280" as="sourcePoint" />
            <mxPoint x="398" y="130" as="targetPoint" />
          </mxGeometry>
        </mxCell>
        <mxCell id="vYJTW-IyGAqJvvr4b3gr-61" value="" style="shape=flexArrow;endArrow=classic;startArrow=block;html=1;rounded=0;entryX=0.5;entryY=1;entryDx=0;entryDy=0;fillColor=#000000;elbow=vertical;strokeWidth=0;targetPerimeterSpacing=0;startFill=0;startSize=4;endSize=4;" parent="1" target="vYJTW-IyGAqJvvr4b3gr-55" edge="1">
          <mxGeometry width="100" height="100" relative="1" as="geometry">
            <mxPoint x="313" y="268" as="sourcePoint" />
            <mxPoint x="348" y="230" as="targetPoint" />
          </mxGeometry>
        </mxCell>
        <mxCell id="vYJTW-IyGAqJvvr4b3gr-4" value="" style="endArrow=none;html=1;rounded=0;entryX=1.001;entryY=0.721;entryDx=0;entryDy=0;entryPerimeter=0;" parent="1" edge="1">
          <mxGeometry width="50" height="50" relative="1" as="geometry">
            <mxPoint x="400" y="180" as="sourcePoint" />
            <mxPoint x="210" y="180" as="targetPoint" />
          </mxGeometry>
        </mxCell>
        <mxCell id="vYJTW-IyGAqJvvr4b3gr-6" value="" style="endArrow=none;html=1;rounded=0;strokeWidth=2;" parent="1" edge="1">
          <mxGeometry width="50" height="50" relative="1" as="geometry">
            <mxPoint x="229" y="211" as="sourcePoint" />
            <mxPoint x="229" y="69" as="targetPoint" />
          </mxGeometry>
        </mxCell>
        <mxCell id="vYJTW-IyGAqJvvr4b3gr-7" value="" style="endArrow=none;html=1;rounded=0;" parent="1" edge="1">
          <mxGeometry width="50" height="50" relative="1" as="geometry">
            <mxPoint x="229" y="70" as="sourcePoint" />
            <mxPoint x="210" y="50" as="targetPoint" />
          </mxGeometry>
        </mxCell>
        <mxCell id="vYJTW-IyGAqJvvr4b3gr-8" value="" style="endArrow=none;html=1;rounded=0;" parent="1" edge="1">
          <mxGeometry width="50" height="50" relative="1" as="geometry">
            <mxPoint x="229" y="100" as="sourcePoint" />
            <mxPoint x="210" y="80" as="targetPoint" />
          </mxGeometry>
        </mxCell>
        <mxCell id="vYJTW-IyGAqJvvr4b3gr-12" value="pc" style="text;html=1;strokeColor=none;fillColor=none;align=center;verticalAlign=middle;whiteSpace=wrap;rounded=0;" parent="1" vertex="1">
          <mxGeometry x="220" y="50" width="60" height="30" as="geometry" />
        </mxCell>
        <mxCell id="vYJTW-IyGAqJvvr4b3gr-23" value="inst" style="text;html=1;strokeColor=none;fillColor=none;align=center;verticalAlign=middle;whiteSpace=wrap;rounded=0;" parent="1" vertex="1">
          <mxGeometry x="220" y="80" width="60" height="30" as="geometry" />
        </mxCell>
        <mxCell id="vYJTW-IyGAqJvvr4b3gr-36" value="" style="endArrow=classic;html=1;rounded=0;strokeWidth=2;entryX=0;entryY=0.5;entryDx=0;entryDy=0;" parent="1" edge="1">
          <mxGeometry width="50" height="50" relative="1" as="geometry">
            <mxPoint x="229" y="210" as="sourcePoint" />
            <mxPoint x="270" y="210" as="targetPoint" />
          </mxGeometry>
        </mxCell>
        <mxCell id="vYJTW-IyGAqJvvr4b3gr-55" value="IDU" style="rounded=0;whiteSpace=wrap;html=1;" parent="1" vertex="1">
          <mxGeometry x="273" y="190" width="80" height="40" as="geometry" />
        </mxCell>
        <mxCell id="vYJTW-IyGAqJvvr4b3gr-66" value="" style="edgeStyle=orthogonalEdgeStyle;rounded=0;orthogonalLoop=1;jettySize=auto;html=1;" parent="1" source="vYJTW-IyGAqJvvr4b3gr-62" target="vYJTW-IyGAqJvvr4b3gr-55" edge="1">
          <mxGeometry relative="1" as="geometry" />
        </mxCell>
        <mxCell id="vYJTW-IyGAqJvvr4b3gr-62" value="寄存器组_读" style="rounded=0;whiteSpace=wrap;html=1;shadow=1;" parent="1" vertex="1">
          <mxGeometry x="253" y="268" width="120" height="37" as="geometry" />
        </mxCell>
        <mxCell id="KoD_33bqlST3TNC8V_lG-2" value="&lt;font style=&quot;font-size: 11px;&quot;&gt;CSR控制&lt;/font&gt;&lt;div&gt;&lt;span style=&quot;font-size: 11px;&quot;&gt;寄存器控制&lt;/span&gt;&lt;/div&gt;&lt;div&gt;&lt;span style=&quot;font-size: 11px;&quot;&gt;ALU控制&lt;/span&gt;&lt;/div&gt;&lt;div&gt;&lt;span style=&quot;font-size: 11px;&quot;&gt;PC控制&lt;/span&gt;&lt;/div&gt;&lt;div&gt;&lt;span style=&quot;font-size: 11px;&quot;&gt;访存控制&lt;/span&gt;&lt;/div&gt;&lt;div&gt;&lt;span style=&quot;font-size: 11px;&quot;&gt;pc&lt;/span&gt;&lt;/div&gt;&lt;div&gt;&lt;span style=&quot;font-size: 11px;&quot;&gt;inst&lt;br&gt;&lt;/span&gt;&lt;div style=&quot;font-size: 11px;&quot;&gt;op1/op2&lt;/div&gt;&lt;/div&gt;" style="text;html=1;align=center;verticalAlign=middle;whiteSpace=wrap;rounded=0;" parent="1" vertex="1">
          <mxGeometry x="313" y="39" width="60" height="130" as="geometry" />
        </mxCell>
        <mxCell id="KoD_33bqlST3TNC8V_lG-3" value="" style="endArrow=classic;html=1;rounded=0;entryX=0.994;entryY=0.922;entryDx=0;entryDy=0;entryPerimeter=0;" parent="1" edge="1">
          <mxGeometry width="50" height="50" relative="1" as="geometry">
            <mxPoint x="230" y="160" as="sourcePoint" />
            <mxPoint x="375" y="160" as="targetPoint" />
          </mxGeometry>
        </mxCell>
      </root>
    </mxGraphModel>
  </diagram>
</mxfile>
